# xmcd CD database file
#
# Track frame offsets:
#	150
#	25496
#	50533
#	77022
#	111842
#	136509
#	165655
#
# Disc length: 2628 seconds
#
# Revision: 0
# Processed by: cddbd v1.5.2PL0 Copyright (c) Steve Scherf et al.
# Submitted via: CDex 1.51
#
DISCID=500a4207
DTITLE=Miquel Casany - Wes Montgomery revisited
DYEAR=2005
DGENRE=Jazz
TTITLE0=four on six
TTITLE1=SOS
TTITLE2=polkadots and moonbeams
TTITLE3=bock to bock
TTITLE4=double deal
TTITLE5=full house
TTITLE6=leila
EXTD=YEAR: 2005
EXTT0=
EXTT1=
EXTT2=
EXTT3=
EXTT4=
EXTT5=
EXTT6=
PLAYORDER=
